<?xml version="1.0" encoding="utf-8"?>
<!-- Generator: Adobe Illustrator 21.0.2, SVG Export Plug-In . SVG Version: 6.00 Build 0)  -->
<svg version="1.1" id="Calque_1" xmlns="http://www.w3.org/2000/svg" xmlns:xlink="http://www.w3.org/1999/xlink" x="0px" y="0px"
	 viewBox="0 0 560 179.8" style="enable-background:new 0 0 560 179.8;" xml:space="preserve">
<style type="text/css">
	.st0{fill-rule:evenodd;clip-rule:evenodd;fill:#424A55;}
	.st1{fill-rule:evenodd;clip-rule:evenodd;fill:#FD7854;}
</style>
<g>
	<path class="st0" d="M204.6,65.3c-14,0-26.6,12-26.6,29.5c0,18.9,13,29.9,27.9,29.9c12.9,0,21.8-7.8,24.9-17.7l-9.4-3.3
		C219.5,110,215,115,206,115c-9.4,0-16.5-7-16.7-17H231c0.1-0.7,0.2-2.1,0.2-3.5C231.3,77.1,221.7,65.3,204.6,65.3z M189.6,89.2
		c0.5-7.2,6-14.3,15.1-14.3c9.8,0,15,6.3,15.2,14.3H189.6z"/>
	<path class="st0" d="M310.6,50.2h-10v9.1c0,4.9-2.6,8.6-8.6,8.6h-3v9.9h10.7v30.6c0,1.2,0.1,2.4,0.3,3.4l0,0
		c-1.5,2.5-4.5,3.4-7.6,3.4c-6.8,0-8-4.8-8.2-6.9V86.5c0-10.9-6.5-20.4-23.2-20.4c-12.1,0-21.7,7.4-22.9,18.1l10.5,2.4
		c0.7-6.5,5-11.3,12.7-11.3c8.5,0,12.1,4.5,12.1,10c0,2-0.9,3.7-4.3,4.2l-15.1,2.2c-9.6,1.4-17,7-17,16.9c0,8.8,7.3,16.7,18.7,16.7
		c10,0,16.4-5.8,18.8-9.7c3,5,8.8,8.6,16.5,8.6c5.8,0,9.7-2.3,12.7-4.6c2.7,2.9,6.7,4.5,11.7,4.5c3.7,0,6.5-0.7,7.4-1v-9.3
		c-0.9,0.2-2.9,0.5-4.3,0.5c-5.7,0-7.8-2.6-7.8-7.7v-29h12.1v-9.9h-12.1V50.2z M273.2,99.8c0,12.2-7.2,16.5-16.1,16.5
		c-5.6,0-9.1-3.9-9.1-8.1c0-5,3.5-7.7,8.1-8.4l17.1-2.6V99.8z"/>
	<polygon class="st0" points="389.4,109.4 374.9,67.5 363.7,67.5 349.3,109.4 336.8,67.5 324.9,67.5 343.2,123.2 354.6,123.2 
		369,80.8 383.8,123.2 395,123.2 413,67.5 401.6,67.5 	"/>
	<path class="st0" d="M424,38.5c-4.3,0-7.8,3.5-7.8,7.9c0,4.3,3.5,7.8,7.8,7.8c4.4,0,7.9-3.5,7.9-7.8C431.9,42,428.4,38.5,424,38.5z
		"/>
	<rect x="419.1" y="67.5" class="st0" width="11.3" height="55.7"/>
	<path class="st0" d="M506.9,65.6c-5.9,0-11.8,1.9-15.9,6.9c-0.3,0.4-1,0.2-1-0.3V38.9h-10.8v20.7c-0.3,4.4-2.9,7.6-8.5,7.6h-12.9
		V49.5h-9.9v9.1c0,4.9-2.5,8.6-8.5,8.6h-3v9.9H447v30.8c0,10.1,6,16,15.5,16c3.7,0,6.5-0.7,7.4-1v-9.3c-0.9,0.2-2.9,0.5-4.3,0.5
		c-5.7,0-7.7-2.6-7.7-7.7V77.2h21.3l0,5.3v40.9h10.8v-33c0.2-8.3,4.6-14.8,12.9-14.8c9.7,0,12.9,6.3,12.9,14.1v33.7h10.9V87.8
		C526.8,75.3,520.2,65.6,506.9,65.6z"/>
</g>
<path class="st1" d="M113.6,131.7c0-2.1-3.2-7-5.9-10.7c-2-2.8-4.6-6.7-4.9-7.6c-0.9-2.6-1.5-5.5-1.5-8.5c0-0.9,0-1.8,0.1-2.7
	l4-27.7c0.1-0.9,0.7-1.6,1.4-1.6c0.8,0,1.4,0.8,1.4,1.8l0,25.3l0,0c0,2.1,1.4,3.8,3,3.8c1.4,0,2.6-1.3,2.9-3.1l0,0l1.5-25.1
	c0-1.2,0.7-2.1,1.6-2.1c0.9,0,1.7,0.9,1.7,2.1l2,25.1l0,0c0.3,1.8,1.5,3.1,3,3.1c1.6,0,2.9-1.7,2.9-3.8l0,0l-0.5-25.3
	c0-1,0.6-1.8,1.4-1.8c0.7,0,1.3,0.7,1.4,1.6l4.5,27.6c0.1,0.9,0.2,1.8,0.2,2.7c0,2.8-0.4,5.4-1.1,7.8c-0.4,1.2-2.9,5.3-4.7,8
	c-2.7,3.8-6,8.9-5.9,11.2l0.6,14.8c10.4-6.7,18.9-16.5,23.9-28.8c13-31.9-2.3-68.3-34.1-81.3c-31.9-13-68.3,2.2-81.3,34.1
	c-1.8,4.5-3.1,9-3.8,13.6l9.2,0.2c2.2,0,7-3.2,10.7-5.9c2.8-2,6.7-4.6,7.6-4.9c2.6-0.9,5.5-1.5,8.5-1.5c0.9,0,1.8,0,2.7,0.1l27.7,4
	c0.9,0.1,1.6,0.7,1.6,1.4c0,0.8-0.8,1.4-1.8,1.4l-25.3,0l0,0c-2.1,0-3.8,1.4-3.8,3c0,1.4,1.4,2.6,3.1,2.9l0,0l25.1,1.5
	c1.2,0,2.1,0.7,2.1,1.6c0,0.9-0.9,1.7-2.1,1.7l-25.1,2l0,0c-1.7,0.3-3.1,1.5-3.1,3c0,1.6,1.7,2.9,3.8,2.9l0,0l25.3-0.5
	c1,0,1.8,0.6,1.8,1.4c0,0.7-0.7,1.3-1.6,1.4l-27.6,4.5c-0.9,0.1-1.8,0.1-2.7,0.2c-2.8,0-5.4-0.4-7.8-1.1c-1.2-0.4-5.3-2.9-8-4.7
	c-3.8-2.7-8.9-6-11.2-5.9l-10,0.4c-0.4,24.9,14.3,48.6,38.7,58.6c16,6.5,33.2,5.9,47.9-0.3L113.6,131.7z"/>
</svg>
